<?xml version="1.0" standalone="no"?><!DOCTYPE svg PUBLIC "-//W3C//DTD SVG 1.1//EN" "http://www.w3.org/Graphics/SVG/1.1/DTD/svg11.dtd"><svg t="1600515324066" class="icon" viewBox="0 0 1024 1024" version="1.1" xmlns="http://www.w3.org/2000/svg" p-id="1164" xmlns:xlink="http://www.w3.org/1999/xlink" width="200" height="200"><defs><style type="text/css"></style></defs><path d="M856.746667 762.88L675.84 581.973333c-3.413333-3.413333-5.12-5.12-8.533333-6.826666 59.733333-107.52 46.08-245.76-46.08-337.92-54.613333-54.613333-126.293333-81.92-199.68-81.92s-143.36 27.306667-199.68 81.92c-109.226667 109.226667-109.226667 288.426667 0 397.653333 54.613333 54.613333 126.293333 81.92 199.68 81.92 47.786667 0 95.573333-11.946667 138.24-35.84 1.706667 3.413333 3.413333 5.12 6.826666 8.533333L747.52 870.4c15.36 15.36 34.133333 22.186667 54.613333 22.186667s39.253333-6.826667 54.613334-22.186667c30.72-29.013333 30.72-76.8 0-107.52z m-433.493334-93.866667c-61.44 0-119.466667-23.893333-162.133333-68.266666-90.453333-90.453333-90.453333-235.52 0-325.973334 42.666667-42.666667 100.693333-68.266667 162.133333-68.266666s119.466667 23.893333 162.133334 68.266666c90.453333 90.453333 90.453333 235.52 0 325.973334-42.666667 42.666667-100.693333 68.266667-162.133334 68.266666zM820.906667 836.266667c-6.826667 6.826667-13.653333 6.826667-18.773334 6.826666s-10.24 0-17.066666-6.826666L604.16 655.36v-1.706667c6.826667-5.12 13.653333-10.24 18.773333-17.066666s11.946667-11.946667 17.066667-18.773334h1.706667l180.906666 180.906667c8.533333 10.24 8.533333 27.306667-1.706666 37.546667z" fill="#335056" p-id="1165"></path><path d="M296.96 310.613333l35.84 35.84c23.893333-23.893333 56.32-37.546667 90.453333-37.546666s66.56 13.653333 90.453334 37.546666l35.84-35.84c-34.133333-34.133333-78.506667-52.906667-126.293334-52.906666-47.786667 1.706667-93.866667 18.773333-126.293333 52.906666z" fill="#335056" p-id="1166"></path><path d="M604.16 655.36L785.066667 836.266667c6.826667 6.826667 13.653333 6.826667 18.773333 6.826666s11.946667-1.706667 18.773333-6.826666c10.24-10.24 10.24-25.6 0-35.84L640 619.52h-1.706667c-5.12 6.826667-10.24 13.653333-17.066666 18.773333s-11.946667 10.24-17.066667 17.066667c0-1.706667 0 0 0 0z" fill="#78BDCC" p-id="1167"></path></svg>